<svg xmlns="http://www.w3.org/2000/svg" width="62.665" height="45.317">
    <path fill="#000402" fill-rule="evenodd" d="M43.026 33.409H4.437c-2.044 0-3.709-1.678-3.709-3.742V4.152C.728 2.088 2.393.41 4.437.41h38.589c2.045 0 3.709 1.678 3.709 3.742v25.515c0 2.064-1.664 3.742-3.709 3.742zM2.212 29.667c0 1.238.998 2.245 2.225 2.245h38.589c1.227 0 2.226-1.007 2.226-2.245V4.152c0-.305-.062-.595-.171-.86L29.994 16.565l8.493 8.039c.298.281.313.756.033 1.056-.147.158-.343.237-.542.237-.182 0-.365-.068-.507-.203l-8.537-8.08c-.022-.021-.031-.049-.05-.072l-2.428 2.136c-.753.662-1.738.992-2.724.992-.987 0-1.973-.33-2.724-.991l-2.427-2.136c-.019.022-.029.05-.051.071l-8.539 8.08c-.142.135-.325.203-.507.203-.197 0-.395-.079-.541-.237-.281-.3-.266-.775.032-1.056l8.495-8.038L2.384 3.288c-.11.266-.172.558-.172.864v25.515zm2.225-27.76c-.381 0-.735.106-1.049.277l18.595 16.365c.948.834 2.55.834 3.496 0l18.6-16.363c-.315-.172-.67-.279-1.053-.279H4.437z"/>
</svg>
7.178 2.297c.354-.262.777-.404 1.217-.404.092 0 .184.006.277.018zm32.587 41.626c-1.867 1.867-5.686 1.788-10.478-.215-5.072-2.12-10.678-6.099-15.784-11.204C9.89 27.013 5.909 21.409 3.788 16.339c-2.003-4.79-2.082-8.608-.215-10.474l2.5-2.5 8.667 15.047-.581.581c-1.134 1.134-1.233 2.929-.23 4.175 1.451 1.803 3.048 3.577 4.745 5.274 1.697 1.696 3.472 3.292 5.275 4.743 1.247 1.003 3.042.904 4.176-.23l.531-.53 15.1 8.616-2.497 2.496z"/>
</svg>
68-4.286 3.654-.25-1.988-.679-3.935-1.284-5.839l8.499-15.841c2.341-1.064 4.6-2.273 6.696-3.769.273-.195.501-.412.679-.65-.617 8.186-4.051 16.198-10.304 22.445zm-.378-20.545c.316.603.628 1.212.941 1.828l-8.209 15.3c-.047.01-.093.021-.141.029-4.437.828-8.91 1.269-13.422 1.289L34.76 46.93c1.275-2.365 2.539-4.74 3.792-7.116.851-1.613 1.687-3.235 2.522-4.856l16.956-1.739c2.076 3.042 4.043 6.15 5.754 9.417zm-3.44-18.146c-.804 2.123-1.666 4.224-2.523 6.329l-16.517 1.694c-.199-.26-.402-.516-.618-.76-1.951-2.207-3.913-4.4-5.873-6.6.017-.022.035-.038.053-.059-.791-.789-1.584-1.578-2.375-2.369L37.09 8.893c.317-.084.636-.154.959-.189 2.5-.253 5.003-.541 7.509-.686 1.534-.086 3.078-.135 4.638-.025l11.379 12.812c-.392 1.236-.776 2.474-1.231 3.685zm3.818-11.603c3.139 3.138 5.568 6.718 7.287 10.543-2.127-1.461-4.399-2.664-6.789-3.644-.371-.153-.753-.289-1.14-.422L52.321 6.755c.077-.545.119-1.09.135-1.64 4.261 1.732 8.253 4.325 11.706 7.772zM27.591 4.452c.044.032.065.059.091.067 2.559.883 4.888 2.185 7.083 3.728l-4.296 12.925c-.022.006-.043.012-.064.022-.879.363-1.775.688-2.64 1.082-3.567 1.619-7.043 3.412-10.318 5.563l-8.478-5.011c.013-.265.058-.533.149-.772.569-1.516 1.128-3.039 1.772-4.524.496-1.144 1.061-2.249 1.678-3.329.403-.445.821-.886 1.252-1.316 4.026-4.021 8.784-6.876 13.85-8.564-.026.04-.054.083-.079.129z"/>
</svg>
