<svg xmlns="http://www.w3.org/2000/svg" width="62.665" height="62.665">
    <path fill="#06080A" fill-rule="evenodd" d="M28.959 43.123c1.786-2.432 3.17-6.084 3.977-10.566 4.483-.808 8.142-2.198 10.571-3.984-1.877 7.09-7.458 12.666-14.548 14.55M3.956 28.573c2.429 1.789 6.084 3.176 10.567 3.984.804 4.482 2.205 8.137 3.984 10.566-7.09-1.877-12.671-7.46-14.551-14.55m14.551-24.99c-1.779 2.425-3.18 6.077-3.984 10.57-4.483.793-8.138 2.191-10.567 3.976 1.88-7.093 7.461-12.673 14.551-14.546m25 14.546c-2.429-1.785-6.088-3.183-10.571-3.976-.807-4.493-2.191-8.145-3.977-10.57 7.087 1.88 12.671 7.453 14.548 14.546m-10.183-1.31c6.692 1.37 10.878 4.046 10.878 6.534 0 2.481-4.186 5.168-10.878 6.534.251-2.061.388-4.242.388-6.534 0-2.288-.137-4.476-.388-6.534M23.728 2.881h.003c2.481.004 5.162 4.19 6.535 10.877-2.058-.248-4.246-.388-6.535-.388-2.292 0-4.473.14-6.531.388 1.366-6.691 4.04-10.877 6.528-10.877m-9.589 27.003c-6.692-1.374-10.882-4.05-10.882-6.531 0-2.488 4.19-5.164 10.882-6.534-.252 2.058-.385 4.246-.385 6.534 0 2.292.133 4.473.385 6.531m9.592.918c-2.502 0-4.84-.174-6.978-.468-.301-2.148-.479-4.476-.479-6.981 0-2.502.178-4.829.479-6.981 2.138-.297 4.476-.475 6.978-.475 2.506 0 4.833.178 6.979.475.297 2.145.475 4.479.475 6.981 0 2.505-.178 4.833-.475 6.981-2.146.294-4.473.468-6.979.468m0 13.019h-.003c-2.488 0-5.162-4.185-6.528-10.87 2.058.245 4.239.381 6.531.381 2.289 0 4.477-.136 6.535-.381-1.373 6.685-4.054 10.87-6.535 10.87m23.001-20.468C46.732 10.669 36.413.362 23.731.358h-.003C11.046.358.731 10.669.731 23.353c0 12.68 10.315 22.991 22.997 22.991h.003c12.682 0 23.001-10.314 23.001-22.991"/>
</svg>
.078 2.981.765 3.651 2.158l6.075 12.642c1.568 3.281 4.29 5.833 7.666 7.192 3.377 1.358 7.115 1.405 10.525.131 3.408-1.274 6.193-3.758 7.841-6.995 1.647-3.236 2.014-6.943 1.032-10.437zM119.79 30.902c-2.039 0-3.692-1.647-3.692-3.679s1.653-3.679 3.692-3.679 3.692 1.647 3.692 3.679-1.653 3.679-3.692 3.679zm-8.717 8.686c-2.039 0-3.692-1.647-3.692-3.679s1.653-3.679 3.692-3.679 3.692 1.647 3.692 3.679-1.653 3.679-3.692 3.679zm0-17.372c-2.038 0-3.691-1.647-3.691-3.679s1.653-3.679 3.691-3.679c2.039 0 3.692 1.647 3.692 3.679s-1.653 3.679-3.692 3.679zm-8.716 8.686c-2.039 0-3.692-1.647-3.692-3.679s1.653-3.679 3.692-3.679 3.692 1.647 3.692 3.679-1.653 3.679-3.692 3.679zM88.32 51.635c-3.244 0-5.883-2.63-5.883-5.863 0-3.233 2.639-5.863 5.883-5.863s5.883 2.63 5.883 5.863c0 3.233-2.639 5.863-5.883 5.863zm0-7.358c-.828 0-1.5.671-1.5 1.495 0 .825.673 1.496 1.5 1.496s1.5-.671 1.5-1.496c0-.824-.673-1.495-1.5-1.495zm-6.361-14.143h-3.196c-1.614 0-2.923-1.304-2.923-2.912 0-1.608 1.309-2.912 2.923-2.912h3.196c1.614 0 2.922 1.304 2.922 2.912 0 1.609-1.308 2.912-2.922 2.912zm-16.631 0h-3.196c-1.614 0-2.922-1.304-2.922-2.912 0-1.608 1.308-2.912 2.922-2.912h3.196c1.614 0 2.922 1.304 2.922 2.912 0 1.609-1.308 2.912-2.922 2.912zm-9.572 21.501c-3.244 0-5.884-2.63-5.884-5.863 0-3.233 2.64-5.863 5.884-5.863s5.883 2.63 5.883 5.863c0 3.233-2.639 5.863-5.883 5.863zm0-7.358c-.828 0-1.501.671-1.501 1.495 0 .825.673 1.496 1.501 1.496.827 0 1.5-.671 1.5-1.496 0-.824-.673-1.495-1.5-1.495zM41.792 30.134h-5.173v5.156c0 1.608-1.309 2.912-2.922 2.912-1.614 0-2.922-1.304-2.922-2.912v-5.156h-5.174c-1.614 0-2.922-1.304-2.922-2.912 0-1.608 1.308-2.912 2.922-2.912h5.174v-5.155c0-1.609 1.308-2.912 2.922-2.912s2.922 1.304 2.922 2.912v5.155h5.173c1.614 0 2.922 1.304 2.922 2.912 0 1.609-1.308 2.912-2.922 2.912z"/>
</svg>
